<?xml version="1.0"?>
<svg version="1.1" xmlns="http://www.w3.org/2000/svg" xmlns:xlink="http://www.w3.org/1999/xlink" width="350" height="75">
    <desc iVinci="yes" version="4.6" gridStep="20" showGrid="no" snapToGrid="no" codePlatform="0"/>
    <g id="Layer1" name="Layer 1" opacity="1">
        <g id="Shape1">
            <desc shapeID="1" type="0" basicInfo-basicType="0" basicInfo-roundedRectRadius="12" basicInfo-polygonSides="6" basicInfo-starPoints="5" bounding="rect(-52.9605,-4.80835,105.921,9.6167)" text="" font-familyName="" font-pixelSize="20" font-bold="0" font-underline="0" font-alignment="1" strokeStyle="0" markerStart="0" markerEnd="0" shadowEnabled="0" shadowOffsetX="0" shadowOffsetY="2" shadowBlur="4" shadowOpacity="160" blurEnabled="0" blurRadius="4" transform="matrix(2.43394,0,0,2.43394,172.942,28.0777)" pers-center="0,0" pers-size="0,0" pers-start="0,0" pers-end="0,0" locked="0" mesh="" flag=""/>
            <path id="shapePath1" d="M59.4269,17.3942 L59.4269,19.8198 C58.7162,20.5099 57.7712,21.7098 56.5919,23.4196 C55.4126,25.1294 54.3697,26.973 53.4633,28.9506 C52.5672,30.8767 51.8874,32.6328 51.4239,34.219 C51.1252,35.2387 50.739,36.8815 50.2652,39.1475 L47.1907,39.1475 C47.8911,34.9245 49.4361,30.7222 51.8256,26.5404 C53.2367,24.0891 54.7199,21.9725 56.2752,20.1906 L44.0389,20.1906 L44.0389,17.3942 L59.4269,17.3942 M73.1748,33.5083 C73.3602,35.0945 74.0966,36.1914 75.3841,36.7991 C76.0433,37.1081 76.8055,37.2626 77.6707,37.2626 C79.3186,37.2626 80.5392,36.7373 81.3323,35.6867 C82.1254,34.6361 82.5219,33.4723 82.5219,32.1951 C82.5219,30.6501 82.0507,29.4553 81.1082,28.6107 C80.1658,27.7661 79.0354,27.3438 77.717,27.3438 C76.7591,27.3438 75.9377,27.5292 75.2528,27.9 C74.5678,28.2708 73.9833,28.7858 73.4992,29.445 L71.0891,29.306 L72.7731,17.3942 L84.2677,17.3942 L84.2677,20.0824 L74.8588,20.0824 L73.9164,26.2315 C74.4314,25.8401 74.9206,25.5465 75.3841,25.3508 C76.2081,25.0109 77.1608,24.841 78.2423,24.841 C80.2714,24.841 81.9915,25.495 83.4025,26.8031 C84.8136,28.1112 85.5192,29.7695 85.5192,31.7779 C85.5192,33.8688 84.8728,35.7125 83.5802,37.309 C82.2876,38.9054 80.225,39.7037 77.3926,39.7037 C75.5901,39.7037 73.9962,39.1964 72.6109,38.1819 C71.2255,37.1673 70.4505,35.6095 70.2857,33.5083 L73.1748,33.5083 M97.6911,22.6007 L100.441,22.6007 L100.441,24.9491 C101.1,24.1354 101.698,23.5432 102.233,23.1724 C103.15,22.5441 104.19,22.23 105.354,22.23 C106.673,22.23 107.733,22.5544 108.537,23.2033 C108.99,23.5741 109.402,24.12 109.773,24.841 C110.391,23.9552 111.117,23.2986 111.951,22.8711 C112.786,22.4437 113.723,22.23 114.763,22.23 C116.988,22.23 118.502,23.0333 119.305,24.6401 C119.738,25.5053 119.954,26.6692 119.954,28.1318 L119.954,39.1475 L117.065,39.1475 L117.065,27.6528 C117.065,26.5507 116.79,25.7937 116.239,25.3817 C115.688,24.9697 115.016,24.7637 114.222,24.7637 C113.131,24.7637 112.191,25.1294 111.403,25.8607 C110.615,26.5919 110.221,27.8125 110.221,29.5223 L110.221,39.1475 L107.394,39.1475 L107.394,28.3481 C107.394,27.2254 107.26,26.4065 106.992,25.8916 C106.57,25.1191 105.782,24.7328 104.628,24.7328 C103.578,24.7328 102.622,25.1397 101.762,25.9534 C100.902,26.767 100.472,28.2399 100.472,30.372 L100.472,39.1475 L97.6911,39.1475 L97.6911,22.6007 M132.838,22.6007 L135.588,22.6007 L135.588,24.9491 C136.247,24.1354 136.844,23.5432 137.38,23.1724 C138.296,22.5441 139.337,22.23 140.501,22.23 C141.819,22.23 142.88,22.5544 143.683,23.2033 C144.137,23.5741 144.549,24.12 144.919,24.841 C145.537,23.9552 146.263,23.2986 147.098,22.8711 C147.932,22.4437 148.869,22.23 149.91,22.23 C152.134,22.23 153.648,23.0333 154.452,24.6401 C154.884,25.5053 155.101,26.6692 155.101,28.1318 L155.101,39.1475 L152.212,39.1475 L152.212,27.6528 C152.212,26.5507 151.936,25.7937 151.385,25.3817 C150.834,24.9697 150.162,24.7637 149.369,24.7637 C148.277,24.7637 147.337,25.1294 146.549,25.8607 C145.761,26.5919 145.367,27.8125 145.367,29.5223 L145.367,39.1475 L142.54,39.1475 L142.54,28.3481 C142.54,27.2254 142.406,26.4065 142.138,25.8916 C141.716,25.1191 140.928,24.7328 139.775,24.7328 C138.724,24.7328 137.769,25.1397 136.909,25.9534 C136.049,26.767 135.619,28.2399 135.619,30.372 L135.619,39.1475 L132.838,39.1475 L132.838,22.6007 M178.427,33.9563 C178.51,34.8833 178.742,35.594 179.123,36.0884 C179.823,36.9845 181.038,37.4326 182.769,37.4326 C183.799,37.4326 184.705,37.2085 185.488,36.7605 C186.271,36.3124 186.662,35.6198 186.662,34.6825 C186.662,33.9718 186.348,33.4311 185.72,33.0603 C185.318,32.8337 184.525,32.571 183.34,32.2723 L181.131,31.7161 C179.72,31.3659 178.68,30.9745 178.01,30.5419 C176.816,29.7901 176.218,28.7498 176.218,27.4211 C176.218,25.8555 176.782,24.5886 177.91,23.6204 C179.038,22.6522 180.554,22.1682 182.46,22.1682 C184.952,22.1682 186.75,22.8994 187.852,24.362 C188.542,25.289 188.877,26.2881 188.856,27.3593 L186.23,27.3593 C186.178,26.731 185.957,26.1594 185.565,25.6444 C184.927,24.9131 183.819,24.5474 182.244,24.5474 C181.193,24.5474 180.397,24.7483 179.857,25.15 C179.316,25.5517 179.045,26.0821 179.045,26.7413 C179.045,27.4623 179.401,28.0391 180.111,28.4717 C180.523,28.7292 181.131,28.9558 181.935,29.1515 L183.773,29.5995 C185.771,30.0836 187.11,30.5522 187.79,31.0054 C188.872,31.7161 189.412,32.8337 189.412,34.358 C189.412,35.8309 188.853,37.103 187.736,38.1741 C186.618,39.2453 184.916,39.7809 182.63,39.7809 C180.168,39.7809 178.425,39.2222 177.4,38.1046 C176.375,36.9871 175.827,35.6043 175.755,33.9563 L178.427,33.9563 M201.941,17.9813 L204.753,17.9813 L204.753,22.6007 L207.395,22.6007 L207.395,24.8719 L204.753,24.8719 L204.753,35.6713 C204.753,36.2481 204.949,36.6343 205.34,36.83 C205.557,36.9433 205.917,37 206.422,37 C206.556,37 206.7,36.9974 206.854,36.9922 C207.009,36.9871 207.189,36.9742 207.395,36.9536 L207.395,39.1475 C207.076,39.2402 206.744,39.3071 206.399,39.3483 C206.054,39.3895 205.68,39.4101 205.279,39.4101 C203.981,39.4101 203.1,39.078 202.637,38.4136 C202.173,37.7493 201.941,36.8867 201.941,35.8258 L201.941,24.8719 L199.701,24.8719 L199.701,22.6007 L201.941,22.6007 L201.941,17.9813 M221.747,22.6007 L221.747,33.5856 C221.747,34.4301 221.881,35.1202 222.149,35.6558 C222.643,36.6446 223.565,37.139 224.914,37.139 C226.85,37.139 228.169,36.2738 228.869,34.5434 C229.25,33.6165 229.441,32.3444 229.441,30.7273 L229.441,22.6007 L232.222,22.6007 L232.222,39.1475 L229.595,39.1475 L229.626,36.7064 C229.266,37.3347 228.818,37.8652 228.282,38.2977 C227.221,39.1629 225.934,39.5955 224.42,39.5955 C222.061,39.5955 220.454,38.8076 219.599,37.2317 C219.136,36.3871 218.904,35.2593 218.904,33.8482 L218.904,22.6007 L221.747,22.6007 M247.113,31.0672 C247.113,32.8388 247.489,34.322 248.241,35.5168 C248.993,36.7116 250.198,37.309 251.856,37.309 C253.143,37.309 254.202,36.7553 255.031,35.6481 C255.86,34.5409 256.275,32.9521 256.275,30.8818 C256.275,28.791 255.847,27.2434 254.992,26.2392 C254.137,25.2349 253.082,24.7328 251.825,24.7328 C250.424,24.7328 249.289,25.2684 248.418,26.3396 C247.548,27.4108 247.113,28.9867 247.113,31.0672 M251.3,22.3072 C252.567,22.3072 253.628,22.575 254.482,23.1106 C254.977,23.4196 255.538,23.9603 256.167,24.7328 L256.167,16.3745 L258.839,16.3745 L258.839,39.1475 L256.336,39.1475 L256.336,36.8455 C255.688,37.8652 254.92,38.6016 254.034,39.0548 C253.149,39.508 252.134,39.7346 250.991,39.7346 C249.147,39.7346 247.551,38.9595 246.201,37.4094 C244.852,35.8593 244.177,33.7967 244.177,31.2217 C244.177,28.8116 244.793,26.7233 246.024,24.9568 C247.255,23.1904 249.013,22.3072 251.3,22.3072 M271.737,22.678 L274.565,22.678 L274.565,39.1475 L271.737,39.1475 L271.737,22.678 M271.737,16.4517 L274.565,16.4517 L274.565,19.6035 L271.737,19.6035 L271.737,16.4517 M294.119,37.3553 C295.963,37.3553 297.227,36.6575 297.912,35.2619 C298.597,33.8662 298.94,32.3135 298.94,30.6037 C298.94,29.0588 298.692,27.8022 298.198,26.834 C297.415,25.3096 296.066,24.5474 294.15,24.5474 C292.451,24.5474 291.215,25.1963 290.442,26.4941 C289.67,27.7919 289.283,29.3575 289.283,31.1908 C289.283,32.9521 289.67,34.4198 290.442,35.594 C291.215,36.7682 292.44,37.3553 294.119,37.3553 M294.227,22.1218 C296.359,22.1218 298.162,22.8325 299.635,24.2539 C301.108,25.6753 301.844,27.7661 301.844,30.5265 C301.844,33.1942 301.195,35.3983 299.897,37.139 C298.6,38.8797 296.586,39.75 293.857,39.75 C291.58,39.75 289.773,38.9801 288.434,37.4403 C287.095,35.9004 286.425,33.8328 286.425,31.2372 C286.425,28.4562 287.131,26.2418 288.542,24.5938 C289.953,22.9458 291.848,22.1218 294.227,22.1218 Z" style="stroke:#000000;stroke-opacity:1;stroke-width:0;stroke-linejoin:bevel;stroke-miterlimit:2;stroke-linecap:square;fill-rule:nonzero;fill:#c09974;fill-opacity:1;"/>
        </g>
        <g id="Shape2">
            <desc shapeID="2" type="0" basicInfo-basicType="0" basicInfo-roundedRectRadius="12" basicInfo-polygonSides="6" basicInfo-starPoints="5" bounding="rect(-70.79,-0.285,141.58,0.57)" text="" font-familyName="" font-pixelSize="20" font-bold="0" font-underline="0" font-alignment="1" strokeStyle="0" markerStart="0" markerEnd="0" shadowEnabled="0" shadowOffsetX="0" shadowOffsetY="2" shadowBlur="4" shadowOpacity="160" blurEnabled="0" blurRadius="4" transform="matrix(2.43394,0,0,2.43394,172.99,53.3785)" pers-center="0,0" pers-size="0,0" pers-start="0,0" pers-end="0,0" locked="0" mesh="" flag=""/>
            <path id="shapePath2" d="M0.691803,52.6848 L345.289,52.6848 L345.289,54.0722 L0.691803,54.0722 L0.691803,52.6848 Z" style="stroke:#000000;stroke-opacity:1;stroke-width:0;stroke-linejoin:bevel;stroke-miterlimit:2;stroke-linecap:square;fill:none;"/>
        </g>
        <g id="Shape3">
            <desc shapeID="3" type="0" basicInfo-basicType="1" basicInfo-roundedRectRadius="12" basicInfo-polygonSides="6" basicInfo-starPoints="5" bounding="rect(-71.0556,-0.644287,142.111,1.28857)" text="" font-familyName="Helvetica" font-pixelSize="20" font-bold="0" font-underline="0" font-alignment="1" strokeStyle="0" markerStart="0" markerEnd="0" shadowEnabled="0" shadowOffsetX="0" shadowOffsetY="2" shadowBlur="4" shadowOpacity="160" blurEnabled="0" blurRadius="4" transform="matrix(2.43394,0,0,2.43394,172.853,4.05326)" pers-center="0,0" pers-size="0,0" pers-start="0,0" pers-end="0,0" locked="0" mesh="" flag=""/>
            <path id="shapePath3" d="M-0.0920258,2.4851 L345.798,2.4851 L345.798,5.62141 L-0.0920258,5.62141 L-0.0920258,2.4851 Z" style="stroke:#000000;stroke-opacity:1;stroke-width:0;stroke-linejoin:bevel;stroke-miterlimit:2;stroke-linecap:square;fill-rule:evenodd;fill:#c09974;fill-opacity:1;"/>
        </g>
        <g id="Shape4">
            <desc shapeID="4" type="0" basicInfo-basicType="1" basicInfo-roundedRectRadius="12" basicInfo-polygonSides="6" basicInfo-starPoints="5" bounding="rect(-71.0556,-0.644287,142.111,1.28857)" text="" font-familyName="Helvetica" font-pixelSize="20" font-bold="0" font-underline="0" font-alignment="1" strokeStyle="0" markerStart="0" markerEnd="0" shadowEnabled="0" shadowOffsetX="0" shadowOffsetY="2" shadowBlur="4" shadowOpacity="160" blurEnabled="0" blurRadius="4" transform="matrix(2.43394,0,0,2.43394,173.637,54.253)" pers-center="0,0" pers-size="0,0" pers-start="0,0" pers-end="0,0" locked="0" mesh="" flag=""/>
            <path id="shapePath4" d="M0.691803,52.6848 L346.582,52.6848 L346.582,55.8211 L0.691803,55.8211 L0.691803,52.6848 Z" style="stroke:#000000;stroke-opacity:1;stroke-width:0;stroke-linejoin:bevel;stroke-miterlimit:2;stroke-linecap:square;fill-rule:evenodd;fill:#c09974;fill-opacity:1;"/>
        </g>
    </g>
</svg>
