<svg id="Layer_1" data-name="Layer 1" xmlns="http://www.w3.org/2000/svg" viewBox="0 0 676 676"><defs><style>.cls-1{fill:#333338;}.cls-2{fill:#c3996b;}.cls-3{fill:none;stroke:#c3996b;stroke-miterlimit:10;stroke-width:3px;}</style></defs><rect class="cls-1" width="676" height="676"/><path class="cls-2" d="M183.08,235.35h27.18v5.71q-4.44,9.76-8.85,19.41t-8.85,19.4c-1-.44-2-.86-3-1.25s-2-.82-3-1.26l16.59-36.3h-14.3v6.81h-5.77Z" transform="translate(38.32 38)"/><path class="cls-2" d="M243.82,235.35h18.37v5.78H248.56L246.19,251a18.84,18.84,0,0,1,2-.44,16.24,16.24,0,0,1,2.78-.22,14.8,14.8,0,0,1,5.55,1,13.55,13.55,0,0,1,4.49,2.89,13.32,13.32,0,0,1,3,4.41,14,14,0,0,1,1.08,5.52,14.63,14.63,0,0,1-1.23,6.07,13.88,13.88,0,0,1-3.26,4.63,14.62,14.62,0,0,1-4.7,2.93,15.24,15.24,0,0,1-5.56,1,16.44,16.44,0,0,1-8.81-2.41,15.15,15.15,0,0,1-5.93-6.7l4.89-3a12.42,12.42,0,0,0,4,4.52,9.84,9.84,0,0,0,5.56,1.63,8.31,8.31,0,0,0,6.14-2.37,8.48,8.48,0,0,0,2.38-6.3,8.57,8.57,0,0,0-.71-3.56,7.37,7.37,0,0,0-1.92-2.59,8.16,8.16,0,0,0-2.86-1.55,11.22,11.22,0,0,0-3.48-.52,8.77,8.77,0,0,0-3.52.66,7.48,7.48,0,0,0-2.48,1.71l-4.81-2.23Z" transform="translate(38.32 38)"/><path class="cls-2" d="M295.76,271.06V246.83h-5.12v-5.7h11l.15,4.15a12.47,12.47,0,0,1,3.74-3.56,10.06,10.06,0,0,1,5.44-1.41,11.23,11.23,0,0,1,5.52,1.3,7.73,7.73,0,0,1,3.45,4.26,13.31,13.31,0,0,1,3.77-4,11.22,11.22,0,0,1,13,1.07q2.75,2.67,2.74,8.89v19.19H332.8V252.69a7.69,7.69,0,0,0-1.11-4.6,4.46,4.46,0,0,0-3.78-1.48,5.68,5.68,0,0,0-2.82.71,7.06,7.06,0,0,0-2.15,1.85,10,10,0,0,0-2,5.3v16.59h-6.66V252.69a7.77,7.77,0,0,0-1.11-4.6,4.46,4.46,0,0,0-3.78-1.48,5.68,5.68,0,0,0-2.82.71,7.06,7.06,0,0,0-2.15,1.85,10,10,0,0,0-2,5.3v16.59Z" transform="translate(38.32 38)"/><path class="cls-2" d="M370.88,271.06V246.83h-5.12v-5.7h11l.14,4.15a12.63,12.63,0,0,1,3.75-3.56,10.06,10.06,0,0,1,5.44-1.41,11.23,11.23,0,0,1,5.52,1.3,7.77,7.77,0,0,1,3.45,4.26,13.31,13.31,0,0,1,3.77-4,11.22,11.22,0,0,1,13,1.07q2.75,2.67,2.74,8.89v19.19h-6.66V252.69a7.77,7.77,0,0,0-1.11-4.6,4.46,4.46,0,0,0-3.78-1.48,5.68,5.68,0,0,0-2.82.71,7.06,7.06,0,0,0-2.15,1.85,10,10,0,0,0-2,5.3v16.59H389.4V252.69a7.69,7.69,0,0,0-1.12-4.6,4.43,4.43,0,0,0-3.77-1.48,5.68,5.68,0,0,0-2.82.71,7.06,7.06,0,0,0-2.15,1.85,10,10,0,0,0-2,5.3v16.59Z" transform="translate(38.32 38)"/><path class="cls-2" d="M169.37,348a41.79,41.79,0,0,1-4.85-1.55,11.93,11.93,0,0,1-3.37-2,7.33,7.33,0,0,1-2-2.66,9.28,9.28,0,0,1-.67-3.75,7.7,7.7,0,0,1,3.26-6.59,14.41,14.41,0,0,1,8.67-2.37,18.78,18.78,0,0,1,6.52.93,13.12,13.12,0,0,1,3.92,2.18v6.89h-5.78v-3.7a8,8,0,0,0-1.92-.63,12.9,12.9,0,0,0-2.82-.26,7.29,7.29,0,0,0-3.93.89A2.88,2.88,0,0,0,165,338a3.25,3.25,0,0,0,.29,1.41,2.57,2.57,0,0,0,1.08,1,11.06,11.06,0,0,0,2,.86c.83.27,1.9.55,3.18.85s2.72.69,4,1A12,12,0,0,1,179,344.7a6.73,6.73,0,0,1,2.33,2.55,8.85,8.85,0,0,1,.86,4.19,10.73,10.73,0,0,1-.49,3,7.4,7.4,0,0,1-1.81,3,10.32,10.32,0,0,1-3.71,2.37,16.37,16.37,0,0,1-6.15,1,22.15,22.15,0,0,1-8.07-1.26,20.43,20.43,0,0,1-4.82-2.52l2.75-5.19a16.6,16.6,0,0,0,4.55,2.3,17,17,0,0,0,5.45.89,7.36,7.36,0,0,0,4.44-1,3,3,0,0,0,1.26-2.67,2,2,0,0,0-1.41-1.92A45.7,45.7,0,0,0,169.37,348Z" transform="translate(38.32 38)"/><path class="cls-2" d="M205.82,330H212V319.88h6.67V330h8.37v5.7h-8.37v13.63a6.92,6.92,0,0,0,1,4.19,3.56,3.56,0,0,0,3,1.22,8.17,8.17,0,0,0,2.14-.3,6,6,0,0,0,1.78-.73c.25.93.47,1.88.67,2.85s.42,1.91.66,2.85a10.64,10.64,0,0,1-2.88,1,17.26,17.26,0,0,1-3.56.37q-4.89,0-7.15-2.48c-1.51-1.66-2.26-4.26-2.26-7.82V335.73h-6.22Z" transform="translate(38.32 38)"/><path class="cls-2" d="M275.31,360l-.15-4.15a12.54,12.54,0,0,1-4.07,3.67,11.23,11.23,0,0,1-5.56,1.37,16.65,16.65,0,0,1-4.56-.6,9.69,9.69,0,0,1-3.7-1.92,9.31,9.31,0,0,1-2.52-3.45,12.93,12.93,0,0,1-.93-5.22V330h6.6v18.59c.05,2.22.58,3.77,1.59,4.63a6.45,6.45,0,0,0,4.33,1.3,7.88,7.88,0,0,0,3.37-.7,8.61,8.61,0,0,0,2.6-1.82,8.3,8.3,0,0,0,1.66-2.48,6.86,6.86,0,0,0,.6-2.78V330h6.66V360Z" transform="translate(38.32 38)"/><path class="cls-2" d="M341.32,312.25V360h-6.38l-.29-3.41a10.52,10.52,0,0,1-4.34,3.19,14.94,14.94,0,0,1-5.74,1.11,16.58,16.58,0,0,1-6.29-1.15,14.25,14.25,0,0,1-8.08-8.3,17.9,17.9,0,0,1-1.11-6.41,16.61,16.61,0,0,1,1.15-6.22,14.8,14.8,0,0,1,8-8.34,15.51,15.51,0,0,1,6.22-1.22,17.07,17.07,0,0,1,5.59.93,9.75,9.75,0,0,1,4.56,3.3V318h-5.19v-5.7ZM334.94,345a11.78,11.78,0,0,0-.59-3.78,8.54,8.54,0,0,0-4.78-5.26,10.38,10.38,0,0,0-4.26-.81,9.33,9.33,0,0,0-6.89,2.67,9.63,9.63,0,0,0-2.66,7.11,9.91,9.91,0,0,0,2.7,7.26,9.21,9.21,0,0,0,6.85,2.74,9.9,9.9,0,0,0,4.26-.85,8.68,8.68,0,0,0,3-2.26,9.53,9.53,0,0,0,1.78-3.19A11.22,11.22,0,0,0,334.94,345Z" transform="translate(38.32 38)"/><path class="cls-2" d="M373.09,360V335.73H368V330h11.78V360Zm-1.63-40a4.1,4.1,0,0,1,4.38-4.37A4.15,4.15,0,0,1,379,317a4.48,4.48,0,0,1,0,6.19,4.29,4.29,0,0,1-3.22,1.26,4.07,4.07,0,0,1-3.15-1.34A4.43,4.43,0,0,1,371.46,320Z" transform="translate(38.32 38)"/><path class="cls-2" d="M408.21,345a15.58,15.58,0,0,1,4.63-11.11,16.31,16.31,0,0,1,5.19-3.41,17,17,0,0,1,18.33,3.41,15.19,15.19,0,0,1,3.45,5,15.91,15.91,0,0,1,0,12.22,15.19,15.19,0,0,1-3.45,5,17.23,17.23,0,0,1-5.22,3.44,17.18,17.18,0,0,1-13.11,0,16.73,16.73,0,0,1-5.19-3.44,15.38,15.38,0,0,1-3.41-5A15.66,15.66,0,0,1,408.21,345Zm6.67,0a10.46,10.46,0,0,0,.74,4,8.82,8.82,0,0,0,2,3.08,9.28,9.28,0,0,0,3.07,2,10.37,10.37,0,0,0,3.85.7,9.84,9.84,0,0,0,3.74-.7,10,10,0,0,0,3.08-2,9.13,9.13,0,0,0,2.11-3.08,10.11,10.11,0,0,0,.78-4,10.32,10.32,0,0,0-.78-4.11,9.08,9.08,0,0,0-2.11-3.07,8.76,8.76,0,0,0-3.11-1.89,11.21,11.21,0,0,0-7.41,0,8.67,8.67,0,0,0-3.11,1.89,8.94,8.94,0,0,0-2.11,3.07A10.32,10.32,0,0,0,414.88,345Z" transform="translate(38.32 38)"/><rect class="cls-2" x="285.5" y="434.39" width="105.01" height="3"/><rect class="cls-2" x="285.5" y="238.6" width="105.01" height="3"/><rect class="cls-3" x="49.78" y="49.78" width="576.44" height="576.44"/></svg>