<?xml version="1.0"?>
<svg version="1.1" xmlns="http://www.w3.org/2000/svg" xmlns:xlink="http://www.w3.org/1999/xlink" width="50" height="50">
    <desc iVinci="yes" version="4.6" gridStep="20" showGrid="no" snapToGrid="no" codePlatform="0"/>
    <g id="Layer1" name="Layer 1" opacity="1">
        <g id="Shape1">
            <desc shapeID="1" type="0" basicInfo-basicType="0" basicInfo-roundedRectRadius="12" basicInfo-polygonSides="6" basicInfo-starPoints="5" bounding="rect(-14.8663,-14.8649,29.7327,29.7299)" text="" font-familyName="" font-pixelSize="20" font-bold="0" font-underline="0" font-alignment="1" strokeStyle="0" markerStart="0" markerEnd="0" shadowEnabled="0" shadowOffsetX="0" shadowOffsetY="2" shadowBlur="4" shadowOpacity="160" blurEnabled="0" blurRadius="4" transform="matrix(1.50377,0,0,1.50377,24.9975,24.9999)" pers-center="0,0" pers-size="0,0" pers-start="0,0" pers-end="0,0" locked="0" mesh="" flag=""/>
            <path id="shapePath1" d="M38.5749,47.3534 C36.7146,47.3534 34.468,46.8873 31.9989,45.9565 C26.5808,43.9128 20.689,39.8767 15.4047,34.5925 C10.1205,29.3082 6.08433,23.415 4.0407,17.9953 C2.18054,13.0705 2.17603,9.02835 4.02566,7.17872 C4.29333,6.91104 4.56552,6.62533 4.84522,6.33209 C6.53396,4.55764 8.48736,2.54108 10.9701,2.65086 C12.7145,2.72304 14.4032,3.80575 16.1355,5.95615 C21.2423,12.3096 18.9401,14.5743 16.2754,17.1998 L15.8032,17.666 C15.3671,18.1021 14.5416,20.1202 22.2093,27.7864 C24.7145,30.2901 26.8469,32.1217 28.5507,33.2301 C29.6259,33.9278 31.5447,34.9804 32.3312,34.1939 L32.8049,33.7158 C35.4274,31.0541 37.6921,28.7593 44.044,33.8647 C46.1959,35.5939 47.2772,37.2827 47.3493,39.0286 C47.4531,41.558 45.438,43.4708 43.6606,45.1579 C43.3689,45.4361 43.0832,45.7053 42.8185,45.9699 C41.8951,46.8918 40.4274,47.3534 38.5749,47.3534 M10.7911,4.14862 C8.99564,4.14862 7.37156,5.85689 5.93546,7.36668 C5.64523,7.67044 5.36403,7.96668 5.08883,8.24188 C3.71138,9.61783 3.85274,13.2389 5.44673,17.466 C7.41667,22.6886 11.331,28.3939 16.4678,33.5308 C21.6048,38.6677 27.3086,42.5805 32.5297,44.5505 C36.7567,46.1459 40.3778,46.2843 41.7553,44.9053 C42.0305,44.6316 42.3237,44.352 42.6245,44.0662 C44.1704,42.597 45.9223,40.9339 45.8471,39.0872 C45.7944,37.8196 44.8711,36.4557 43.1012,35.0346 C37.8079,30.7819 36.3297,32.2857 33.8755,34.7699 L33.3943,35.2556 C32.2259,36.4301 30.3207,36.173 27.7311,34.4887 C25.9417,33.3247 23.7251,31.4255 21.1461,28.8481 C14.7836,22.4856 12.7475,18.5938 14.74,16.5998 L15.2198,16.1246 C17.713,13.6705 19.2168,12.1892 14.9626,6.896 C13.54,5.12907 12.1761,4.20576 10.9084,4.15162 C10.8693,4.15012 10.8287,4.14862 10.7911,4.14862 Z" style="stroke:none;fill-rule:evenodd;fill:#c19971;fill-opacity:1;"/>
        </g>
        <g id="Shape2">
            <desc shapeID="2" type="0" basicInfo-basicType="0" basicInfo-roundedRectRadius="12" basicInfo-polygonSides="6" basicInfo-starPoints="5" bounding="rect(-3.82075,-3.73277,7.6415,7.46555)" text="" font-familyName="" font-pixelSize="20" font-bold="0" font-underline="0" font-alignment="1" strokeStyle="0" markerStart="0" markerEnd="0" shadowEnabled="0" shadowOffsetX="0" shadowOffsetY="2" shadowBlur="4" shadowOpacity="160" blurEnabled="0" blurRadius="4" transform="matrix(1.50377,0,0,1.50377,34.3642,15.5099)" pers-center="0,0" pers-size="0,0" pers-start="0,0" pers-end="0,0" locked="0" mesh="" flag=""/>
            <path id="shapePath2" d="M38.838,21.1232 C38.7432,21.1232 38.6485,21.1051 38.5553,21.0675 C38.1703,20.9112 37.9838,20.4736 38.1418,20.0901 C39.0982,17.7322 38.5508,15.045 36.7522,13.2449 C34.9041,11.3968 32.0635,10.884 29.6801,11.9546 C29.3056,12.1246 28.8559,11.9592 28.686,11.5802 C28.5145,11.2013 28.6815,10.7562 29.0605,10.5863 C32.0094,9.25091 35.5267,9.89302 37.8154,12.1832 C40.0425,14.4103 40.7177,17.7351 39.5342,20.6555 C39.4169,20.9442 39.1342,21.1232 38.838,21.1232 Z" style="stroke:none;fill-rule:evenodd;fill:#c19971;fill-opacity:1;"/>
        </g>
        <g id="Shape3">
            <desc shapeID="3" type="0" basicInfo-basicType="0" basicInfo-roundedRectRadius="12" basicInfo-polygonSides="6" basicInfo-starPoints="5" bounding="rect(-7.22351,-7.04628,14.447,14.0926)" text="" font-familyName="" font-pixelSize="20" font-bold="0" font-underline="0" font-alignment="1" strokeStyle="0" markerStart="0" markerEnd="0" shadowEnabled="0" shadowOffsetX="0" shadowOffsetY="2" shadowBlur="4" shadowOpacity="160" blurEnabled="0" blurRadius="4" transform="matrix(1.50377,0,0,1.50377,36.4956,13.252)" pers-center="0,0" pers-size="0,0" pers-start="0,0" pers-end="0,0" locked="0" mesh="" flag=""/>
            <path id="shapePath3" d="M45.5508,23.8481 C45.4561,23.8481 45.3614,23.8299 45.2682,23.7924 C44.8816,23.636 44.6967,23.1984 44.8546,22.8149 C46.9072,17.7517 45.7388,11.9848 41.8756,8.12158 C37.9087,4.15463 31.8079,3.04184 26.695,5.35313 C26.3161,5.51855 25.871,5.35614 25.6996,4.97719 C25.5296,4.59674 25.6965,4.15162 26.0755,3.9802 C31.7552,1.41476 38.5312,2.64935 42.9388,7.05691 C47.2306,11.3487 48.5298,17.7547 46.2471,23.3789 C46.1298,23.6705 45.8471,23.8481 45.5508,23.8481 Z" style="stroke:none;fill-rule:evenodd;fill:#c19971;fill-opacity:1;"/>
        </g>
    </g>
</svg>
