<?xml version="1.0"?>
<svg version="1.1" xmlns="http://www.w3.org/2000/svg" xmlns:xlink="http://www.w3.org/1999/xlink" width="50" height="50">
    <desc iVinci="yes" version="4.6" gridStep="20" showGrid="no" snapToGrid="no" codePlatform="0"/>
    <g id="Layer1" name="Layer 1" opacity="1">
        <g id="Shape1">
            <desc shapeID="1" type="0" basicInfo-basicType="0" basicInfo-roundedRectRadius="12" basicInfo-polygonSides="6" basicInfo-starPoints="5" bounding="rect(-256,-256,512,512)" text="" font-familyName="" font-pixelSize="20" font-bold="0" font-underline="0" font-alignment="1" strokeStyle="0" markerStart="0" markerEnd="0" shadowEnabled="0" shadowOffsetX="0" shadowOffsetY="2" shadowBlur="4" shadowOpacity="160" blurEnabled="0" blurRadius="4" transform="matrix(0.087701,0,0,0.087701,25,25)" pers-center="0,0" pers-size="0,0" pers-start="0,0" pers-end="0,0" locked="0" mesh="" flag=""/>
            <path id="shapePath1" d="M35.2966,2.54853 L14.7034,2.54853 C8.00107,2.54853 2.54853,8.00107 2.54853,14.7034 L2.54853,35.297 C2.54853,41.999 8.00107,47.4515 14.7034,47.4515 L35.297,47.4515 C41.999,47.4515 47.4515,41.999 47.4515,35.297 L47.4515,14.7034 C47.4515,8.00107 41.999,2.54853 35.2966,2.54853 M45.0676,35.297 C45.0676,40.5475 40.5475,45.0676 35.2966,45.0676 L14.7034,45.0676 C9.45255,45.0676 4.93239,40.5475 4.93239,35.297 L4.93239,14.7034 C4.93239,9.45255 9.45255,4.93239 14.7034,4.93239 L35.297,4.93239 C40.5475,4.93239 45.0676,9.45255 45.0676,14.7034 L45.0676,35.297 M45.0676,35.297 " style="stroke:none;fill-rule:evenodd;fill:#c19971;fill-opacity:1;"/>
        </g>
        <g id="Shape2">
            <desc shapeID="2" type="0" basicInfo-basicType="0" basicInfo-roundedRectRadius="12" basicInfo-polygonSides="6" basicInfo-starPoints="5" bounding="rect(-139.996,-139.996,279.991,279.991)" text="" font-familyName="" font-pixelSize="20" font-bold="0" font-underline="0" font-alignment="1" strokeStyle="0" markerStart="0" markerEnd="0" shadowEnabled="0" shadowOffsetX="0" shadowOffsetY="2" shadowBlur="4" shadowOpacity="160" blurEnabled="0" blurRadius="4" transform="matrix(0.087701,0,0,0.087701,25,25)" pers-center="0,0" pers-size="0,0" pers-start="0,0" pers-end="0,0" locked="0" mesh="" flag=""/>
            <path id="shapePath2" d="M25,12.7222 C18.2299,12.7222 12.7222,18.2299 12.7222,25 C12.7222,31.7701 18.2299,37.2778 25,37.2778 C31.7701,37.2778 37.2778,31.7701 37.2778,25 C37.2778,18.2299 31.7701,12.7222 25,12.7222 M25,34.894 C19.6817,34.894 15.106,30.3186 15.106,25 C15.106,19.6817 19.6817,15.106 25,15.106 C30.3186,15.106 34.894,19.6817 34.894,25 C34.894,30.3186 30.3186,34.894 25,34.894 M25,34.894 " style="stroke:none;fill-rule:evenodd;fill:#c19971;fill-opacity:1;"/>
        </g>
        <g id="Shape3">
            <desc shapeID="3" type="0" basicInfo-basicType="0" basicInfo-roundedRectRadius="12" basicInfo-polygonSides="6" basicInfo-starPoints="5" bounding="rect(-41.3689,-41.3689,82.7379,82.7379)" text="" font-familyName="" font-pixelSize="20" font-bold="0" font-underline="0" font-alignment="1" strokeStyle="0" markerStart="0" markerEnd="0" shadowEnabled="0" shadowOffsetX="0" shadowOffsetY="2" shadowBlur="4" shadowOpacity="160" blurEnabled="0" blurRadius="4" transform="matrix(0.0589551,0,0,0.0589551,37.669,11.5806)" pers-center="0,0" pers-size="0,0" pers-start="0,0" pers-end="0,0" locked="0" mesh="" flag=""/>
            <path id="shapePath3" d="M37.669,9.14165 C36.324,9.14165 35.2301,10.2358 35.2301,11.5804 C35.2301,12.9253 36.324,14.0195 37.669,14.0195 C39.0138,14.0195 40.1079,12.9253 40.1079,11.5804 C40.1079,10.2355 39.0138,9.14165 37.669,9.14165 Z" style="stroke:none;fill-rule:evenodd;fill:#c19971;fill-opacity:1;"/>
        </g>
    </g>
</svg>
