<?xml version="1.0"?>
<svg version="1.1" xmlns="http://www.w3.org/2000/svg" xmlns:xlink="http://www.w3.org/1999/xlink" width="50" height="50">
    <desc iVinci="yes" version="4.6" gridStep="20" showGrid="no" snapToGrid="no" codePlatform="0"/>
    <g id="Layer1" name="Layer 1" opacity="1">
        <g id="Shape1">
            <desc shapeID="1" type="0" basicInfo-basicType="0" basicInfo-roundedRectRadius="12" basicInfo-polygonSides="6" basicInfo-starPoints="5" bounding="rect(-158.916,-137.956,317.832,275.91)" text="" font-familyName="" font-pixelSize="20" font-bold="0" font-underline="0" font-alignment="1" strokeStyle="0" markerStart="0" markerEnd="0" shadowEnabled="0" shadowOffsetX="0" shadowOffsetY="2" shadowBlur="4" shadowOpacity="160" blurEnabled="0" blurRadius="4" transform="matrix(0.148471,0,0,0.148466,25,25)" pers-center="0,0" pers-size="0,0" pers-start="0,0" pers-end="0,0" locked="0" mesh="" flag=""/>
            <path id="shapePath1" d="M47.3597,6.82828 C45.8511,4.91901 43.228,4.5183 41.2948,4.5183 C40.5325,4.5183 39.75,4.57842 38.9703,4.69868 C37.2958,4.95539 29.9914,7.67854 27.4818,15.4617 L27.0467,16.8138 L28.4617,16.706 C28.9836,16.6659 29.4704,16.643 29.9208,16.643 C31.2872,16.643 32.1278,16.8663 32.5677,17.3463 C33.0438,17.8664 33.2128,18.8357 33.0839,20.3081 C32.9303,22.0542 31.937,24.0875 31.0886,25.6638 L31.0123,25.806 C30.2881,27.1562 28.9398,29.6686 27.6518,29.6686 C27.2463,29.6686 26.7929,29.4024 26.3024,28.8785 C24.5295,26.9835 24.1804,23.5515 23.873,20.5229 C23.768,19.4886 23.6688,18.5125 23.518,17.6194 L23.3769,16.7567 C23.0724,14.8829 22.7269,12.7589 22.1402,10.9163 C21.5237,8.98028 20.081,6.50714 18.0457,5.91269 C17.6001,5.78204 17.1134,5.71523 16.602,5.71523 C14.6029,5.71523 12.7565,6.71143 12.2394,7.01579 C9.55643,8.5916 7.30161,10.6011 5.12236,12.5437 C4.03274,13.5151 2.9057,14.519 1.76455,15.4292 L1.4057,15.7154 L1.4057,16.8366 L1.70057,17.1181 C1.85422,17.2652 1.9935,17.4845 2.14048,17.7174 C2.50112,18.287 2.99642,19.0675 4.07372,19.2231 C5.13573,19.3805 6.16239,19.0694 7.03081,18.7994 C7.57568,18.6295 8.08999,18.4691 8.49354,18.4691 C8.78735,18.4691 9.13478,18.5273 9.54221,19.2125 C10.1308,20.2125 10.4506,21.3059 10.7893,22.4634 C10.9544,23.0272 11.1215,23.5949 11.3189,24.1599 C12.1089,26.408 12.7245,28.8753 13.3962,31.568 L13.6414,32.5632 C14.7627,37.1318 16.2979,43.3891 20.3523,45.1085 C20.9354,45.3557 21.6071,45.4816 22.3513,45.4816 C24.2913,45.4816 26.4448,44.6114 27.6995,43.8672 C32.293,41.1479 35.6136,37.2253 38.003,34.0993 C44.5412,25.2408 47.9026,15.4732 48.3904,12.9082 C48.8596,10.2814 48.521,8.29199 47.3597,6.82828 M46.5143,12.5629 C46.0696,14.9073 42.7328,24.4795 36.4771,32.9544 C33.0992,37.376 30.0926,40.2356 26.7262,42.227 C25.5954,42.8977 23.8044,43.5752 22.3512,43.5752 C21.8655,43.5752 21.4437,43.5008 21.0983,43.3538 C17.9238,42.0075 16.5201,36.2873 15.4954,32.1109 L15.2281,31.0289 C14.5649,28.3716 13.9381,25.8611 13.1203,23.5302 C12.9332,22.9979 12.7778,22.4625 12.6222,21.9311 C12.2653,20.7127 11.8979,19.4522 11.1862,18.2451 C10.5249,17.1298 9.6194,16.5639 8.49532,16.5639 C7.80062,16.5639 7.12122,16.7758 6.46483,16.9809 C5.7158,17.2148 5.04397,17.4409 4.35224,17.3388 C4.16903,17.312 4.05352,17.1708 3.75583,16.7003 C3.69852,16.6107 3.63943,16.5172 3.57649,16.4217 C4.54125,15.624 5.48195,14.7862 6.39608,13.9703 C8.50675,12.0887 10.69,10.1432 13.212,8.66242 C14.064,8.16045 15.4018,7.62524 16.607,7.62524 C16.9372,7.62524 17.2415,7.66532 17.5144,7.74549 C18.6728,8.08429 19.8284,9.93154 20.3274,11.4972 C20.8712,13.2052 21.2043,15.2556 21.4982,17.0638 L21.6404,17.9359 C21.7808,18.769 21.8771,19.7154 21.9782,20.7182 C22.317,24.0465 22.7005,27.8182 24.9124,30.1836 C25.777,31.11 26.7006,31.5794 27.6557,31.5794 C30.0861,31.5785 31.6576,28.6502 32.6976,26.7113 L32.7739,26.57 C33.7664,24.7246 34.8054,22.5578 34.9887,20.4767 C35.169,18.4118 34.8484,17.0083 33.9773,16.059 C32.9039,14.8862 31.2474,14.7364 29.9239,14.7364 C29.8819,14.7364 29.8398,14.7364 29.797,14.7364 C32.3666,8.84741 38.1451,6.75864 39.2617,6.58687 C39.9363,6.48383 40.6395,6.42845 41.2969,6.42845 C42.8094,6.42845 44.8293,6.70327 45.8657,8.01525 C46.6785,9.03907 46.8836,10.4885 46.5143,12.5629 Z" style="stroke:none;fill-rule:evenodd;fill:#c19971;fill-opacity:1;"/>
        </g>
    </g>
</svg>
