<?xml version="1.0"?>
<svg version="1.1" xmlns="http://www.w3.org/2000/svg" xmlns:xlink="http://www.w3.org/1999/xlink" width="50" height="50">
    <desc iVinci="yes" version="4.6" gridStep="20" showGrid="no" snapToGrid="no" codePlatform="0"/>
    <g id="Layer1" name="Layer 1" opacity="1">
        <g id="Shape1">
            <desc shapeID="1" type="0" basicInfo-basicType="0" basicInfo-roundedRectRadius="12" basicInfo-polygonSides="6" basicInfo-starPoints="5" bounding="rect(-185.44,-119.28,370.88,238.56)" text="" font-familyName="" font-pixelSize="20" font-bold="0" font-underline="0" font-alignment="1" strokeStyle="0" markerStart="0" markerEnd="0" shadowEnabled="0" shadowOffsetX="0" shadowOffsetY="2" shadowBlur="4" shadowOpacity="160" blurEnabled="0" blurRadius="4" transform="matrix(0.124511,0,0,0.124511,25,25)" pers-center="0,0" pers-size="0,0" pers-start="0,0" pers-end="0,0" locked="0" mesh="" flag=""/>
            <path id="shapePath1" d="M46.1867,10.1484 L3.81329,10.1484 C2.76255,10.1484 1.91077,11.0002 1.91077,12.0509 L1.91077,37.9491 C1.91077,38.9998 2.76255,39.8516 3.81329,39.8516 L46.1867,39.8516 C47.2375,39.8516 48.0892,38.9998 48.0892,37.9491 L48.0892,12.0509 C48.0892,11.0002 47.2375,10.1484 46.1867,10.1484 M3.88248,11.6425 L46.1444,11.6425 C46.3232,11.6434 46.4806,11.7604 46.5329,11.9314 L25,25.3392 L3.49401,11.9314 C3.5463,11.7604 3.70368,11.6434 3.88248,11.6425 M3.49574,13.7255 L18.833,23.3266 L3.49574,35.5473 L3.49574,13.7255 M46.535,37.879 C46.535,38.1046 46.3521,38.2874 46.1266,38.2874 L3.8481,38.3127 C3.62261,38.3127 3.43971,38.1298 3.43971,37.9043 L3.43971,37.5058 L20.2686,24.2782 L24.6016,27.0005 C24.845,27.154 25.155,27.154 25.3984,27.0005 L29.7314,24.2782 L46.535,37.4806 L46.535,37.879 M46.5061,35.5492 L31.095,23.3664 L46.5061,13.8133 L46.5061,35.5492 Z" style="stroke:none;fill-rule:evenodd;fill:url(#linearGradientFill1);fill-opacity:1;"/><defs><linearGradient id="linearGradientFill1" gradientUnits="userSpaceOnUse" x1="23.483" y1="40.3494" x2="24.5465" y2="10.1484"><stop offset="0" stop-color="#c19971" stop-opacity="1"/><stop offset="1" stop-color="#e8bb8c" stop-opacity="1"/></linearGradient></defs>
        </g>
    </g>
</svg>
