<?xml version="1.0"?>
<svg version="1.1" xmlns="http://www.w3.org/2000/svg" xmlns:xlink="http://www.w3.org/1999/xlink" width="50" height="50">
    <desc iVinci="yes" version="4.6" gridStep="20" showGrid="no" snapToGrid="no" codePlatform="0"/>
    <g id="Layer1" name="Layer 1" opacity="1">
        <g id="Shape1">
            <desc shapeID="1" type="0" basicInfo-basicType="0" basicInfo-roundedRectRadius="12" basicInfo-polygonSides="6" basicInfo-starPoints="5" bounding="rect(-25.9844,-48.0615,51.9688,96.123)" text="" font-familyName="" font-pixelSize="20" font-bold="0" font-underline="0" font-alignment="1" strokeStyle="0" markerStart="0" markerEnd="0" shadowEnabled="0" shadowOffsetX="0" shadowOffsetY="2" shadowBlur="4" shadowOpacity="160" blurEnabled="0" blurRadius="4" transform="matrix(0.487579,0,0,0.487579,25,25)" pers-center="0,0" pers-size="0,0" pers-start="0,0" pers-end="0,0" locked="0" mesh="" flag=""/>
            <path id="shapePath1" d="M36.7153,1.57599 L30.6377,1.56624 C23.8096,1.56624 19.397,6.09342 19.397,13.1005 L19.397,18.4184 L13.2862,18.4184 C12.7582,18.4184 12.3306,18.8465 12.3306,19.3746 L12.3306,27.0798 C12.3306,27.6078 12.7586,28.0354 13.2862,28.0354 L19.397,28.0354 L19.397,47.4781 C19.397,48.0062 19.8246,48.4338 20.3526,48.4338 L28.3256,48.4338 C28.8535,48.4338 29.2812,48.0057 29.2812,47.4781 L29.2812,28.0354 L36.4262,28.0354 C36.9543,28.0354 37.3819,27.6078 37.3819,27.0798 L37.3848,19.3746 C37.3848,19.121 37.2838,18.8782 37.1049,18.6988 C36.926,18.5194 36.6822,18.4184 36.4286,18.4184 L29.2812,18.4184 L29.2812,13.9103 C29.2812,11.7435 29.7976,10.6435 32.6201,10.6435 L36.7143,10.642 C37.2419,10.642 37.6695,10.2139 37.6695,9.68639 L37.6695,2.53165 C37.6695,2.00458 37.2424,1.57697 36.7153,1.57599 Z" style="stroke:#c19971;stroke-opacity:1;stroke-width:1.5;stroke-linejoin:miter;stroke-miterlimit:2;stroke-linecap:butt;fill:none;"/>
        </g>
    </g>
</svg>
