<?xml version="1.0"?>
<svg version="1.1" xmlns="http://www.w3.org/2000/svg" xmlns:xlink="http://www.w3.org/1999/xlink" width="280" height="180">
    <desc iVinci="yes" version="4.6" gridStep="20" showGrid="no" snapToGrid="no" codePlatform="0"/>
    <g id="Layer1" name="Layer 3" opacity="1">
        <g id="Shape1">
            <desc shapeID="1" type="0" basicInfo-basicType="0" basicInfo-roundedRectRadius="12" basicInfo-polygonSides="6" basicInfo-starPoints="5" bounding="rect(-112.101,-25.8431,224.201,51.6864)" text="75mm studio" font-familyName="디자인하우스 OTF" font-pixelSize="86" font-bold="0" font-underline="0" font-alignment="1" strokeStyle="0" markerStart="0" markerEnd="0" shadowEnabled="0" shadowOffsetX="0" shadowOffsetY="2" shadowBlur="4" shadowOpacity="160" blurEnabled="0" blurRadius="4" transform="matrix(0.809547,0,0,0.809547,143.823,55.1203)" pers-center="0,0" pers-size="0,0" pers-start="0,0" pers-end="0,0" locked="0" mesh="" flag=""/>
            <path id="shapePath1" d="M53.0717,45.9651 L58.5016,45.9651 L58.5016,39.5599 L71.939,39.5599 L56.3438,73.6743 C58.2929,74.51 60.1029,75.2061 61.9836,76.0417 C67.5527,63.8577 73.1217,51.7436 78.6224,39.5599 L78.6224,34.1991 L53.0717,34.1991 L53.0717,45.9651 M91.5438,53.693 L96.0693,55.7816 C97.252,54.4588 99.2022,53.5537 101.709,53.5537 C106.303,53.5537 110.133,56.1995 110.133,61.2818 C110.133,66.1552 106.791,69.4274 102.126,69.4274 C98.2978,69.4274 95.0953,67.2692 93.145,63.649 L88.55,66.5033 C91.0568,71.864 96.2791,75.0669 102.405,75.0669 C109.714,75.0669 116.258,69.706 116.258,61.2818 C116.258,53.7627 110.479,48.2627 103.031,48.2627 C101.221,48.2627 99.4098,48.6106 98.5054,48.8892 L100.734,39.6296 L113.544,39.6296 L113.544,34.1991 L96.2791,34.1991 L91.5438,53.693 M140.398,67.7565 L140.398,52.1614 C140.539,48.7501 143.115,44.7816 146.942,44.7816 C150.286,44.7816 151.538,46.6614 151.538,50.4906 L151.538,67.7565 L157.804,67.7565 L157.804,52.1614 C157.945,48.7501 160.52,44.7816 164.348,44.7816 C167.69,44.7816 168.943,46.6614 168.943,50.4906 L168.943,67.7565 L175.209,67.7565 L175.209,49.7246 C175.209,41.927 171.45,38.8638 165.809,38.8638 C161.495,38.8638 158.71,41.1612 156.829,44.0854 C155.438,40.3956 152.375,38.8638 148.405,38.8638 C144.439,38.8638 141.652,40.8828 139.772,43.5284 L139.633,39.6296 L129.328,39.6296 L129.328,44.9904 L134.133,44.9904 L134.133,67.7565 L140.398,67.7565 M199.763,67.7565 L199.763,52.1614 C199.902,48.7501 202.477,44.7816 206.308,44.7816 C209.649,44.7816 210.902,46.6614 210.902,50.4906 L210.902,67.7565 L217.168,67.7565 L217.168,52.1614 C217.307,48.7501 219.884,44.7816 223.713,44.7816 C227.055,44.7816 228.308,46.6614 228.308,50.4906 L228.308,67.7565 L234.573,67.7565 L234.573,49.7246 C234.573,41.927 230.814,38.8638 225.176,38.8638 C220.858,38.8638 218.072,41.1612 216.194,44.0854 C214.8,40.3956 211.738,38.8638 207.769,38.8638 C203.801,38.8638 201.016,40.8828 199.137,43.5284 L198.998,39.6296 L188.693,39.6296 L188.693,44.9904 L193.497,44.9904 L193.497,67.7565 L199.763,67.7565 Z" style="stroke:none;fill-rule:evenodd;fill:#c19971;fill-opacity:1;"/>
        </g>
        <g id="Shape2">
            <desc shapeID="2" type="0" basicInfo-basicType="0" basicInfo-roundedRectRadius="12" basicInfo-polygonSides="6" basicInfo-starPoints="5" bounding="rect(-145.747,-28.251,291.494,56.5017)" text="75mm studio" font-familyName="디자인하우스 OTF" font-pixelSize="86" font-bold="0" font-underline="0" font-alignment="1" strokeStyle="0" markerStart="0" markerEnd="0" shadowEnabled="0" shadowOffsetX="0" shadowOffsetY="2" shadowBlur="4" shadowOpacity="160" blurEnabled="0" blurRadius="4" transform="matrix(0.809547,0,0,0.809547,140,121.596)" pers-center="0,0" pers-size="0,0" pers-start="0,0" pers-end="0,0" locked="0" mesh="" flag=""/>
            <path id="shapePath2" d="M33.4983,132.352 C37.8847,133.466 39.2772,133.675 39.3468,135.485 C39.4164,137.504 37.8847,138.966 33.9853,138.966 C30.5046,138.966 27.0237,137.712 24.5869,135.972 L22.0109,140.845 C24.03,142.446 28.0679,144.397 34.1244,144.397 C43.5233,144.397 45.5432,139.035 45.5432,135.554 C45.5432,129.08 40.8785,128.105 35.5866,126.851 C30.783,125.738 29.3907,125.041 29.3907,122.953 C29.3907,120.795 31.2705,119.681 34.4039,119.681 C36.4226,119.681 37.9542,120.029 38.8587,120.516 L38.8587,123.998 L44.2897,123.998 L44.2897,117.523 C42.4798,115.922 39.5555,114.599 34.4735,114.599 C27.7199,114.599 23.2642,117.801 23.2642,123.023 C23.2642,128.523 26.4666,130.472 33.4983,132.352 M62.0068,120.795 L67.8553,120.795 L67.8553,134.72 C67.8553,141.333 70.6392,144.397 76.6965,144.397 C78.9934,144.397 81.2927,143.909 82.7536,143.074 C82.3374,141.333 81.9884,139.454 81.5014,137.712 C80.6654,138.27 79.1337,138.687 77.8107,138.687 C75.3039,138.687 74.12,137.296 74.12,133.605 L74.12,120.795 L81.9884,120.795 L81.9884,115.434 L74.12,115.434 L74.12,105.896 L67.8553,105.896 L67.8553,115.434 L62.0068,115.434 L62.0068,120.795 M127.035,143.561 L127.035,115.434 L120.769,115.434 L120.769,131.168 C120.769,134.649 117.637,138.479 113.041,138.479 C109.56,138.479 107.541,137.086 107.472,132.91 L107.472,115.434 L101.277,115.434 L101.277,133.885 C101.277,141.612 106.218,144.397 112.276,144.397 C116.175,144.397 119.308,142.517 121.327,139.663 L121.466,143.561 L127.035,143.561 M165.187,98.7252 L165.187,104.086 L170.06,104.086 L170.06,118.637 C167.764,115.713 164.143,114.668 160.522,114.668 C152.029,114.668 146.041,121.143 146.041,129.498 C146.041,138.27 151.959,144.397 160.593,144.397 C164.352,144.397 168.043,142.935 170.06,140.358 L170.34,143.561 L176.327,143.561 L176.327,98.7252 L165.187,98.7252 M170.34,129.498 C170.34,134.162 167.415,138.827 161.287,138.827 C156.137,138.827 152.307,135.067 152.307,129.428 C152.307,123.859 155.998,120.239 161.287,120.239 C167.415,120.239 170.34,124.554 170.34,129.498 M205.735,143.561 L205.735,115.434 L194.666,115.434 L194.666,120.795 L199.469,120.795 L199.469,143.561 L205.735,143.561 M197.938,105.965 C197.938,108.194 199.677,110.143 202.045,110.143 C204.552,110.143 206.221,108.333 206.221,105.965 C206.221,103.947 204.483,101.858 202.045,101.858 C199.538,101.858 197.938,103.46 197.938,105.965 M227.148,129.498 C227.148,137.573 233.692,144.466 242.533,144.466 C251.445,144.466 257.989,137.573 257.989,129.498 C257.989,121.421 251.445,114.668 242.533,114.668 C233.692,114.668 227.148,121.421 227.148,129.498 M233.414,129.498 C233.414,123.65 237.659,120.378 242.533,120.378 C247.406,120.378 251.654,123.65 251.654,129.498 C251.654,135.067 247.476,138.687 242.533,138.687 C237.312,138.687 233.414,135.067 233.414,129.498 Z" style="stroke:none;fill-rule:evenodd;fill:#c19971;fill-opacity:1;"/>
        </g>
        <g id="Shape3">
            <desc shapeID="3" type="0" basicInfo-basicType="1" basicInfo-roundedRectRadius="12" basicInfo-polygonSides="6" basicInfo-starPoints="5" bounding="rect(-50.0002,-2.89223,100,5.78445)" text="" font-familyName="Helvetica" font-pixelSize="20" font-bold="0" font-underline="0" font-alignment="1" strokeStyle="0" markerStart="0" markerEnd="0" shadowEnabled="0" shadowOffsetX="0" shadowOffsetY="2" shadowBlur="4" shadowOpacity="160" blurEnabled="0" blurRadius="4" transform="matrix(0.862046,0,0,0.47109,138.599,173.684)" pers-center="0,0" pers-size="0,0" pers-start="0,0" pers-end="0,0" locked="0" mesh="" flag=""/>
            <path id="shapePath3" d="M95.4964,172.322 L181.701,172.322 L181.701,175.047 L95.4964,175.047 L95.4964,172.322 Z" style="stroke:none;fill-rule:evenodd;fill:#c19971;fill-opacity:1;"/>
        </g>
        <g id="Shape4">
            <desc shapeID="4" type="0" basicInfo-basicType="1" basicInfo-roundedRectRadius="12" basicInfo-polygonSides="6" basicInfo-starPoints="5" bounding="rect(-50.0002,-2.89265,100,5.78528)" text="" font-familyName="Helvetica" font-pixelSize="20" font-bold="0" font-underline="0" font-alignment="1" strokeStyle="0" markerStart="0" markerEnd="0" shadowEnabled="0" shadowOffsetX="0" shadowOffsetY="2" shadowBlur="4" shadowOpacity="160" blurEnabled="0" blurRadius="4" transform="matrix(0.862046,0,0,0.47109,138.599,6.31588)" pers-center="0,0" pers-size="0,0" pers-start="0,0" pers-end="0,0" locked="0" mesh="" flag=""/>
            <path id="shapePath4" d="M95.4964,4.95318 L181.701,4.95318 L181.701,7.67857 L95.4964,7.67857 L95.4964,4.95318 Z" style="stroke:none;fill-rule:evenodd;fill:#c19971;fill-opacity:1;"/>
        </g>
    </g>
</svg>
