<?xml version="1.0"?>
<svg version="1.1" xmlns="http://www.w3.org/2000/svg" xmlns:xlink="http://www.w3.org/1999/xlink" width="200" height="25">
    <desc iVinci="yes" version="4.6" gridStep="20" showGrid="no" snapToGrid="no" codePlatform="0"/>
    <g id="Layer1" name="Layer 1" opacity="1">
        <g id="Shape1">
            <desc shapeID="1" type="0" basicInfo-basicType="0" basicInfo-roundedRectRadius="12" basicInfo-polygonSides="6" basicInfo-starPoints="5" bounding="rect(-248.399,-32.809,496.798,65.618)" text="75mm studio" font-familyName="디자인하우스 OTF" font-pixelSize="86" font-bold="0" font-underline="0" font-alignment="1" strokeStyle="0" markerStart="0" markerEnd="0" shadowEnabled="0" shadowOffsetX="0" shadowOffsetY="2" shadowBlur="4" shadowOpacity="160" blurEnabled="0" blurRadius="4" transform="matrix(0.334622,0,0,0.334622,100,12.5)" pers-center="0,0" pers-size="0,0" pers-start="0,0" pers-end="0,0" locked="0" mesh="" flag=""/>
            <path id="shapePath1" d="M16.8803,11.0467 L19.125,11.0467 L19.125,8.39921 L24.679,8.39921 L18.2328,22.5002 C19.0386,22.8455 19.7868,23.1333 20.5638,23.4786 C22.866,18.4426 25.1682,13.4353 27.4416,8.39921 L27.4416,6.18335 L16.8803,6.18335 L16.8803,11.0467 M32.647,14.241 L34.5176,15.1044 C35.0068,14.5576 35.8126,14.1835 36.8486,14.1835 C38.7478,14.1835 40.3306,15.277 40.3306,17.3778 C40.3306,19.3922 38.9493,20.7448 37.0212,20.7448 C35.4385,20.7448 34.1147,19.8527 33.3089,18.3562 L31.4096,19.5361 C32.4456,21.752 34.6039,23.0757 37.1363,23.0757 C40.1579,23.0757 42.863,20.8599 42.863,17.3778 C42.863,14.2698 40.4745,11.9964 37.3953,11.9964 C36.6471,11.9964 35.8989,12.1403 35.5248,12.2554 L36.4457,8.42799 L41.7407,8.42799 L41.7407,6.18335 L34.6039,6.18335 L32.647,14.241 M51.4919,20.0541 L51.4919,13.6079 C51.5494,12.1978 52.6142,10.5575 54.1969,10.5575 C55.5782,10.5575 56.0962,11.3345 56.0962,12.9173 L56.0962,20.0541 L58.6861,20.0541 L58.6861,13.6079 C58.7437,12.1978 59.8085,10.5575 61.3912,10.5575 C62.7726,10.5575 63.2905,11.3345 63.2905,12.9173 L63.2905,20.0541 L65.8805,20.0541 L65.8805,12.6007 C65.8805,9.37765 64.3265,8.11144 61.9956,8.11144 C60.2114,8.11144 59.0603,9.0611 58.2833,10.2697 C57.7077,8.74454 56.4415,8.11144 54.8012,8.11144 C53.161,8.11144 52.0099,8.94599 51.2329,10.0395 L51.1753,8.42799 L46.9162,8.42799 L46.9162,10.6438 L48.9019,10.6438 L48.9019,20.0541 L51.4919,20.0541 M74.7969,20.0541 L74.7969,13.6079 C74.8545,12.1978 75.9193,10.5575 77.502,10.5575 C78.8833,10.5575 79.4013,11.3345 79.4013,12.9173 L79.4013,20.0541 L81.9913,20.0541 L81.9913,13.6079 C82.0489,12.1978 83.1136,10.5575 84.6964,10.5575 C86.0777,10.5575 86.5957,11.3345 86.5957,12.9173 L86.5957,20.0541 L89.1857,20.0541 L89.1857,12.6007 C89.1857,9.37765 87.6317,8.11144 85.3007,8.11144 C83.5165,8.11144 82.3654,9.0611 81.5884,10.2697 C81.0129,8.74454 79.7467,8.11144 78.1064,8.11144 C76.466,8.11144 75.3149,8.94599 74.5379,10.0395 L74.4804,8.42799 L70.2213,8.42799 L70.2213,10.6438 L72.207,10.6438 L72.207,20.0541 L74.7969,20.0541 M106.957,15.4209 C108.77,15.8814 109.346,15.9677 109.374,16.7159 C109.403,17.5505 108.77,18.1548 107.159,18.1548 C105.72,18.1548 104.281,17.6368 103.274,16.9173 L102.209,18.9318 C103.043,19.5937 104.712,20.3994 107.216,20.3994 C111.101,20.3994 111.936,18.1836 111.936,16.7447 C111.936,14.0684 110.008,13.6655 107.82,13.1475 C105.835,12.6871 105.259,12.3993 105.259,11.536 C105.259,10.6438 106.036,10.1834 107.331,10.1834 C108.166,10.1834 108.799,10.3273 109.173,10.5287 L109.173,11.9676 L111.418,11.9676 L111.418,9.29132 C110.669,8.62943 109.461,8.08266 107.36,8.08266 C104.569,8.08266 102.727,9.40642 102.727,11.5647 C102.727,13.8382 104.051,14.6439 106.957,15.4209 M115.245,10.6438 L117.662,10.6438 L117.662,16.3994 C117.662,19.1332 118.813,20.3994 121.317,20.3994 C122.267,20.3994 123.216,20.198 123.821,19.8527 C123.648,19.1332 123.504,18.3562 123.303,17.6368 C122.957,17.867 122.324,18.0397 121.778,18.0397 C120.742,18.0397 120.252,17.4641 120.252,15.9389 L120.252,10.6438 L123.504,10.6438 L123.504,8.42799 L120.252,8.42799 L120.252,4.48547 L117.662,4.48547 L117.662,8.42799 L115.245,8.42799 L115.245,10.6438 M138.666,20.0541 L138.666,8.42799 L136.076,8.42799 L136.076,14.9317 C136.076,16.3706 134.781,17.9533 132.882,17.9533 C131.443,17.9533 130.608,17.3778 130.58,15.6511 L130.58,8.42799 L128.018,8.42799 L128.018,16.054 C128.018,19.2483 130.062,20.3994 132.565,20.3994 C134.177,20.3994 135.472,19.6224 136.306,18.4426 L136.364,20.0541 L138.666,20.0541 M151.528,1.52139 L151.528,3.73726 L153.542,3.73726 L153.542,9.75176 C152.592,8.5431 151.096,8.11144 149.599,8.11144 C146.089,8.11144 143.614,10.7877 143.614,14.241 C143.614,17.867 146.06,20.3994 149.628,20.3994 C151.182,20.3994 152.707,19.7951 153.542,18.7303 L153.657,20.0541 L156.132,20.0541 L156.132,1.52139 L151.528,1.52139 M153.657,14.241 C153.657,16.1691 152.448,18.0972 149.916,18.0972 C147.786,18.0972 146.204,16.5432 146.204,14.2123 C146.204,11.9101 147.729,10.4136 149.916,10.4136 C152.448,10.4136 153.657,12.1978 153.657,14.241 M165.193,20.0541 L165.193,8.42799 L160.618,8.42799 L160.618,10.6438 L162.603,10.6438 L162.603,20.0541 L165.193,20.0541 M161.97,4.51425 C161.97,5.43513 162.69,6.2409 163.668,6.2409 C164.704,6.2409 165.395,5.49268 165.395,4.51425 C165.395,3.6797 164.675,2.81638 163.668,2.81638 C162.632,2.81638 161.97,3.47826 161.97,4.51425 M170.372,14.241 C170.372,17.5792 173.077,20.4282 176.731,20.4282 C180.415,20.4282 183.12,17.5792 183.12,14.241 C183.12,10.9028 180.415,8.11144 176.731,8.11144 C173.077,8.11144 170.372,10.9028 170.372,14.241 M172.962,14.241 C172.962,11.8237 174.717,10.4712 176.731,10.4712 C178.746,10.4712 180.501,11.8237 180.501,14.241 C180.501,16.5432 178.775,18.0397 176.731,18.0397 C174.573,18.0397 172.962,16.5432 172.962,14.241 Z" style="stroke:none;fill-rule:evenodd;fill:#c19971;fill-opacity:1;"/>
        </g>
    </g>
</svg>
